<?xml version="1.0"?>

<svg style="fill:none;stroke:none;fill-rule:evenodd;clip-rule:evenodd;stroke-linecap:round;stroke-linejoin:round;stroke-miterlimit:1.5;" version="1.1" xmlns="http://www.w3.org/2000/svg" xmlns:xlink="http://www.w3.org/1999/xlink" width="770" height="660" viewBox="0 0 770 660"><g id="items" style="isolation: isolate"><g id="blend" style="mix-blend-mode: normal"><g id="g-root-cp_0_g-0_hrjk621f50ah7-fill" data-item-order="999528314" transform="translate(254.6099853515625, 222.449951171875)"><g id="cp_0_g-0_hrjk621f50ah7-fill-merged" stroke="none" fill="#969696" fill-opacity="1"><g><path d="M233.47 163.71C233.47 163.71 226.74 161.52 218.8 158.94C212.52 156.9 205.48 154.61 200.4 152.96C201.63 147.68 202.31 142.19 202.31 136.54C202.31 130.89 201.64 125.4 200.4 120.12L233.47 109.37L235.99 117.13L250.74 97.43L227.22 90.16L229.74 97.92C229.74 97.92 223.01 100.11 215.07 102.69C208.8 104.73 201.77 107.01 196.69 108.66C192.36 98.37 185.69 89.31 177.36 82.11L197.81 53.97L204.41 58.77L204.76 34.16L181.46 42.1L188.06 46.9C188.06 46.9 183.9 52.62 178.99 59.38C175.11 64.72 170.77 70.7 167.63 75.02C158.38 69.41 147.76 65.84 136.39 64.9 V30.12 H144.55L130.37 10L116.19 30.12 H124.35 V64.9C112.98 65.84 102.36 69.41 93.11 75.02L72.68 46.9L79.28 42.1L55.98 34.16L56.33 58.77L62.93 53.97C62.93 53.97 67.09 59.69 72 66.45C75.89 71.8 80.24 77.79 83.38 82.11C75.05 89.31 68.38 98.36 64.05 108.66L31 97.92L33.52 90.16L10 97.43L24.75 117.13L27.27 109.37C27.27 109.37 34 111.56 41.94 114.14C48.22 116.18 55.26 118.47 60.34 120.12C59.11 125.4 58.43 130.89 58.43 136.54C58.43 142.19 59.1 147.68 60.34 152.96L27.27 163.71L24.75 155.95L10 175.65L33.52 182.92L31 175.16C31 175.16 37.73 172.97 45.67 170.39C51.94 168.35 58.97 166.07 64.05 164.42C68.38 174.71 75.05 183.77 83.38 190.97L62.93 219.11L56.33 214.31L55.98 238.92L79.28 230.98L72.68 226.18C72.68 226.18 76.84 220.46 81.75 213.7C85.63 208.36 89.97 202.38 93.11 198.06C102.36 203.67 112.98 207.24 124.35 208.18 V242.96 H116.19L130.37 263.08L144.55 242.96 H136.39 V208.18C147.76 207.24 158.38 203.67 167.63 198.06L188.06 226.18L181.46 230.98L204.76 238.92L204.41 214.31L197.81 219.11C197.81 219.11 193.65 213.39 188.74 206.63C184.85 201.28 180.5 195.29 177.36 190.97C185.69 183.77 192.36 174.72 196.69 164.42L229.74 175.16L227.22 182.92L250.74 175.65L235.99 155.95L233.47 163.71"></path></g></g></g><g id="g-root-cp_0_g-0_hrjk621f50ah7-stroke" data-item-order="999528314" transform="translate(254.6099853515625, 222.449951171875)"></g><g id="g-root-cp_1_g-1_dbq21m1f50b9g-fill" data-item-order="999528318" transform="translate(343.739990234375, 143.81982421875)"><g id="cp_1_g-1_dbq21m1f50b9g-fill-merged" stroke="none" fill="#de8431" fill-opacity="1"><g><path d="M72.52 41.26C72.52 58.524 58.524 72.52 41.26 72.52C23.996 72.52 10 58.524 10 41.26C10 23.996 23.996 10 41.26 10C58.524 10 72.52 23.996 72.52 41.26"></path></g></g></g><g id="g-root-cp_1_g-1_dbq21m1f50b9g-stroke" data-item-order="999528318" transform="translate(343.739990234375, 143.81982421875)"></g><g id="g-root-cp_2_g-2_dbq21m1f50b9h-fill" data-item-order="999528322" transform="translate(445.97003173828125, 177.0299072265625)"><g id="cp_2_g-2_dbq21m1f50b9h-fill-merged" stroke="none" fill="#e0cb15" fill-opacity="1"><g><path d="M72.52 41.26C72.52 58.524 58.524 72.52 41.26 72.52C23.996 72.52 10 58.524 10 41.26C10 23.996 23.996 10 41.26 10C58.524 10 72.52 23.996 72.52 41.26"></path></g></g></g><g id="g-root-cp_2_g-2_dbq21m1f50b9h-stroke" data-item-order="999528322" transform="translate(445.97003173828125, 177.0299072265625)"></g><g id="g-root-cp_3_g-3_dbq21m1f50b9i-fill" data-item-order="999528326" transform="translate(509.1500244140625, 264)"><g id="cp_3_g-3_dbq21m1f50b9i-fill-merged" stroke="none" fill="#de58a9" fill-opacity="1"><g><path d="M72.52 41.26C72.52 58.524 58.524 72.52 41.26 72.52C23.996 72.52 10 58.524 10 41.26C10 23.996 23.996 10 41.26 10C58.524 10 72.52 23.996 72.52 41.26"></path></g></g></g><g id="g-root-cp_3_g-3_dbq21m1f50b9i-stroke" data-item-order="999528326" transform="translate(509.1500244140625, 264)"></g><g id="g-root-cp_4_g-4_4g31sq1f50c27-fill" data-item-order="999528330" transform="translate(509.1500244140625, 371.47998046875)"><g id="cp_4_g-4_4g31sq1f50c27-fill-merged" stroke="none" fill="#1eabda" fill-opacity="1"><g><path d="M72.52 41.26C72.52 58.524 58.524 72.52 41.26 72.52C23.996 72.52 10 58.524 10 41.26C10 23.996 23.996 10 41.26 10C58.524 10 72.52 23.996 72.52 41.26"></path></g></g></g><g id="g-root-cp_4_g-4_4g31sq1f50c27-stroke" data-item-order="999528330" transform="translate(509.1500244140625, 371.47998046875)"></g><g id="g-root-cp_5_g-5_8vwjx61f50c1s-fill" data-item-order="999528334" transform="translate(445.97003173828125, 458.44873046875)"><g id="cp_5_g-5_8vwjx61f50c1s-fill-merged" stroke="none" fill="#92bd39" fill-opacity="1"><g><path d="M72.52 41.26C72.52 58.524 58.524 72.52 41.26 72.52C23.996 72.52 10 58.524 10 41.26C10 23.996 23.996 10 41.26 10C58.524 10 72.52 23.996 72.52 41.26"></path></g></g></g><g id="g-root-cp_5_g-5_8vwjx61f50c1s-stroke" data-item-order="999528334" transform="translate(445.97003173828125, 458.44873046875)"></g><g id="g-root-cp_6_g-6_8vwjx61f50c1t-fill" data-item-order="999528340" transform="translate(343.739990234375, 491.65966796875)"><g id="cp_6_g-6_8vwjx61f50c1t-fill-merged" stroke="none" fill="#7f64ea" fill-opacity="1"><g><path d="M72.52 41.26C72.52 58.524 58.524 72.52 41.26 72.52C23.996 72.52 10 58.524 10 41.26C10 23.996 23.996 10 41.26 10C58.524 10 72.52 23.996 72.52 41.26"></path></g></g></g><g id="g-root-cp_6_g-6_8vwjx61f50c1t-stroke" data-item-order="999528340" transform="translate(343.739990234375, 491.65966796875)"></g><g id="g-root-cp_7_g-7_w0re1f509oq-fill" data-item-order="999528344" transform="translate(241.510009765625, 458.44873046875)"><g id="cp_7_g-7_w0re1f509oq-fill-merged" stroke="none" fill="#4e88e7" fill-opacity="1"><g><path d="M72.52 41.26C72.52 58.524 58.524 72.52 41.26 72.52C23.996 72.52 10 58.524 10 41.26C10 23.996 23.996 10 41.26 10C58.524 10 72.52 23.996 72.52 41.26"></path></g></g></g><g id="g-root-cp_7_g-7_w0re1f509oq-stroke" data-item-order="999528344" transform="translate(241.510009765625, 458.44873046875)"></g><g id="g-root-cp_8_g-8_w0re1f509or-fill" data-item-order="999528348" transform="translate(178.33001708984375, 371.47998046875)"><g id="cp_8_g-8_w0re1f509or-fill-merged" stroke="none" fill="#ba5de5" fill-opacity="1"><g><path d="M72.52 41.26C72.52 58.524 58.524 72.52 41.26 72.52C23.996 72.52 10 58.524 10 41.26C10 23.996 23.996 10 41.26 10C58.524 10 72.52 23.996 72.52 41.26"></path></g></g></g><g id="g-root-cp_8_g-8_w0re1f509or-stroke" data-item-order="999528348" transform="translate(178.33001708984375, 371.47998046875)"></g><g id="g-root-cp_9_g-9_w0re1f509os-fill" data-item-order="999528352" transform="translate(178.33001708984375, 264)"><g id="cp_9_g-9_w0re1f509os-fill-merged" stroke="none" fill="#969696" fill-opacity="1"><g><path d="M72.52 41.26C72.52 58.524 58.524 72.52 41.26 72.52C23.996 72.52 10 58.524 10 41.26C10 23.996 23.996 10 41.26 10C58.524 10 72.52 23.996 72.52 41.26"></path></g></g></g><g id="g-root-cp_9_g-9_w0re1f509os-stroke" data-item-order="999528352" transform="translate(178.33001708984375, 264)"></g><g id="g-root-cp_10_g-10_1um6km21f50a9x-fill" data-item-order="999528356" transform="translate(241.510009765625, 177.0299072265625)"><g id="cp_10_g-10_1um6km21f50a9x-fill-merged" stroke="none" fill="#e55753" fill-opacity="1"><g><path d="M72.52 41.26C72.52 58.524 58.524 72.52 41.26 72.52C23.996 72.52 10 58.524 10 41.26C10 23.996 23.996 10 41.26 10C58.524 10 72.52 23.996 72.52 41.26"></path></g></g></g><g id="g-root-cp_10_g-10_1um6km21f50a9x-stroke" data-item-order="999528356" transform="translate(241.510009765625, 177.0299072265625)"></g><g id="g-root-ic_10_4hyh221f50but-fill" data-item-order="999994816" transform="translate(339, 312.99609375)"><g id="ic_10_4hyh221f50but-fill-merged" stroke="none" fill="#ffffff" fill-opacity="1"><g><path d="M80.11 69.31L71.11 53.77C70.96 53.533 70.701 53.386 70.42 53.38C70.147 53.389 69.903 53.552 69.79 53.8C69.115 55.104 68.245 56.298 67.21 57.34C64.472 60.09 60.708 61.57 56.83 61.42C56.616 61.421 56.411 61.508 56.26 61.66C55.375 62.569 54.365 63.346 53.26 63.97C52.906 64.179 52.785 64.633 52.99 64.99L61.81 79.99C62.402 80.987 63.517 81.554 64.671 81.445C65.826 81.336 66.815 80.571 67.21 79.48L69.7 72.61L76.87 73.81C77.994 73.954 79.103 73.453 79.737 72.514C80.372 71.575 80.423 70.359 79.87 69.37L80.11 69.31 M35.74 61.66C35.593 61.506 35.382 61.428 35.17 61.45C31.291 61.574 27.533 60.086 24.79 57.34C23.755 56.298 22.885 55.104 22.21 53.8C22.097 53.552 21.853 53.389 21.58 53.38C21.299 53.386 21.04 53.533 20.89 53.77L11.89 69.31C11.337 70.299 11.388 71.515 12.023 72.454C12.657 73.393 13.766 73.894 14.89 73.75L22.06 72.55L24.55 79.42C24.945 80.511 25.934 81.276 27.089 81.385C28.243 81.494 29.358 80.927 29.95 79.93L38.77 64.93C38.953 64.63 38.903 64.244 38.65 64C37.583 63.349 36.605 62.562 35.74 61.66 M52 40.63C53.657 40.63 55 39.287 55 37.63 V34.63C55 32.973 53.657 31.63 52 31.63C50.343 31.63 49 32.973 49 34.63 V37.63C49 39.287 50.343 40.63 52 40.63 M54.43 56.5C57.837 57.617 61.583 56.723 64.118 54.188C66.653 51.653 67.547 47.907 66.43 44.5C69.586 42.866 71.567 39.609 71.567 36.055C71.567 32.501 69.586 29.244 66.43 27.61C67.547 24.203 66.653 20.457 64.118 17.922C61.583 15.387 57.837 14.493 54.43 15.61C52.805 12.452 49.552 10.467 46 10.467C42.448 10.467 39.195 12.452 37.57 15.61C34.163 14.493 30.417 15.387 27.882 17.922C25.347 20.457 24.453 24.203 25.57 27.61C22.414 29.244 20.433 32.501 20.433 36.055C20.433 39.609 22.414 42.866 25.57 44.5C24.453 47.907 25.347 51.653 27.882 54.188C30.417 56.723 34.163 57.617 37.57 56.5C39.195 59.658 42.448 61.643 46 61.643C49.552 61.643 52.805 59.658 54.43 56.5 M37 43.63C36.172 43.63 35.5 42.958 35.5 42.13C35.5 41.302 36.172 40.63 37 40.63 H38.5 V31.63L36.58 33.07C35.913 33.55 34.986 33.418 34.48 32.77C33.983 32.107 34.117 31.167 34.78 30.67L36.7 29.23C37.573 28.598 38.719 28.484 39.7 28.93C40.719 29.443 41.358 30.49 41.35 31.63 V40.63 H43C43.828 40.63 44.5 41.302 44.5 42.13C44.5 42.958 43.828 43.63 43 43.63 H37 M46 34.63C46 31.316 48.686 28.63 52 28.63C55.314 28.63 58 31.316 58 34.63 V37.63C58 40.944 55.314 43.63 52 43.63C48.686 43.63 46 40.944 46 37.63 V34.63"></path></g></g></g><g id="g-root-ic_10_4hyh221f50but-stroke" data-item-order="999994816" transform="translate(339, 312.99609375)"></g><g id="g-root-ic_1_1cynhsq1f4nnrf-fill" data-item-order="999998704" transform="translate(255, 472)"><g id="ic_1_1cynhsq1f4nnrf-fill-merged" stroke="none" fill="#ffffff" fill-opacity="1"><g><path d="M13 31 H25.915C26.085 30.997 26.253 30.962 26.41 30.895C26.558 30.834 26.684 30.73 26.77 30.595C26.935 30.325 27.115 30.055 27.295 29.8C27.364 29.714 27.406 29.61 27.415 29.5C27.415 28.672 26.743 28 25.915 28 H13.75C13.336 28 13 27.664 13 27.25 V18.25C12.999 18.054 13.074 17.866 13.21 17.725C13.338 17.595 13.508 17.515 13.69 17.5 H42.19C42.604 17.5 42.94 17.836 42.94 18.25 V24.25C42.94 25.078 43.612 25.75 44.44 25.75C45.268 25.75 45.94 25.078 45.94 24.25 V17.5C45.94 15.843 44.597 14.5 42.94 14.5 H13C11.343 14.5 10 15.843 10 17.5 V28C10 29.657 11.343 31 13 31 M22 20.5C21.66 20.018 21.005 19.88 20.5 20.185L20.32 20.305C20.199 20.372 20.051 20.372 19.93 20.305C19.809 20.239 19.735 20.112 19.735 19.975 V19.75C19.735 19.129 19.231 18.625 18.61 18.625C17.989 18.625 17.485 19.129 17.485 19.75 V19.945C17.485 20.082 17.411 20.209 17.29 20.275C17.169 20.342 17.021 20.342 16.9 20.275L16.735 20.17C16.23 19.797 15.518 19.904 15.145 20.41C14.772 20.915 14.879 21.627 15.385 22L16 22.435C16.104 22.499 16.167 22.613 16.165 22.735C16.169 22.862 16.107 22.981 16 23.05L15.385 23.5C14.904 23.84 14.761 24.49 15.055 25C15.267 25.315 15.62 25.506 16 25.51C16.22 25.51 16.435 25.442 16.615 25.315L16.795 25.195C16.916 25.128 17.064 25.128 17.185 25.195C17.303 25.263 17.377 25.388 17.38 25.525 V25.75C17.38 26.371 17.884 26.875 18.505 26.875C19.126 26.875 19.63 26.371 19.63 25.75 V25.555C19.63 25.418 19.704 25.291 19.825 25.225C19.946 25.158 20.094 25.158 20.215 25.225L20.38 25.33C20.56 25.457 20.775 25.525 20.995 25.525C21.399 25.541 21.782 25.341 22 25C22.312 24.496 22.174 23.836 21.685 23.5L21.085 23.095C20.979 23.024 20.912 22.908 20.905 22.78C20.904 22.65 20.973 22.53 21.085 22.465L21.64 22C22.138 21.674 22.296 21.017 22 20.5 M31.945 20.5C31.605 20.018 30.95 19.88 30.445 20.185L30.25 20.305C30.135 20.375 29.991 20.378 29.874 20.313C29.756 20.248 29.682 20.125 29.68 19.99 V19.75C29.68 19.129 29.176 18.625 28.555 18.625C27.934 18.625 27.43 19.129 27.43 19.75 V19.945C27.43 20.082 27.356 20.209 27.235 20.275C27.114 20.342 26.966 20.342 26.845 20.275L26.68 20.17C26.354 19.914 25.914 19.858 25.535 20.025C25.155 20.191 24.898 20.552 24.864 20.965C24.831 21.377 25.027 21.775 25.375 22L25.975 22.42C26.083 22.482 26.151 22.596 26.155 22.72C26.148 22.848 26.081 22.964 25.975 23.035L25.36 23.5C24.862 23.826 24.704 24.483 25 25C25.206 25.321 25.563 25.514 25.945 25.51C26.165 25.51 26.38 25.442 26.56 25.315L26.74 25.195C26.861 25.128 27.009 25.128 27.13 25.195C27.248 25.263 27.322 25.388 27.325 25.525 V25.75C27.325 26.371 27.829 26.875 28.45 26.875C29.071 26.875 29.575 26.371 29.575 25.75 V25.555C29.575 25.418 29.649 25.291 29.77 25.225C29.891 25.158 30.039 25.158 30.16 25.225L30.325 25.33C30.504 25.459 30.719 25.527 30.94 25.525C31.316 25.522 31.668 25.337 31.885 25.03C32.182 24.523 32.046 23.874 31.57 23.53L31 23.08C30.898 23.008 30.836 22.89 30.835 22.765C30.831 22.638 30.893 22.519 31 22.45L31.615 22C32.096 21.66 32.239 21.01 31.945 20.5 M36.625 27.25C31.447 27.25 27.25 31.447 27.25 36.625C27.25 41.803 31.447 46 36.625 46C41.803 46 46 41.803 46 36.625C46 31.447 41.803 27.25 36.625 27.25 M40.465 38.875C40.679 39.084 40.8 39.371 40.8 39.67C40.8 39.969 40.679 40.256 40.465 40.465C40.256 40.679 39.969 40.798 39.67 40.795C39.371 40.796 39.085 40.677 38.875 40.465L36.895 38.5C36.824 38.427 36.727 38.385 36.625 38.385C36.523 38.385 36.426 38.427 36.355 38.5L34.375 40.48C34.165 40.692 33.879 40.811 33.58 40.81C33.281 40.813 32.994 40.694 32.785 40.48C32.571 40.271 32.45 39.984 32.45 39.685C32.45 39.386 32.571 39.099 32.785 38.89L34.765 36.91C34.838 36.839 34.88 36.742 34.88 36.64C34.88 36.538 34.838 36.441 34.765 36.37L32.785 34.39C32.484 34.11 32.36 33.687 32.462 33.289C32.564 32.89 32.875 32.579 33.274 32.477C33.672 32.375 34.095 32.499 34.375 32.8L36.355 34.78C36.426 34.853 36.523 34.895 36.625 34.895C36.727 34.895 36.824 34.853 36.895 34.78L38.875 32.8C39.155 32.499 39.578 32.375 39.976 32.477C40.375 32.579 40.686 32.89 40.788 33.289C40.89 33.687 40.766 34.11 40.465 34.39L38.5 36.355C38.427 36.426 38.385 36.523 38.385 36.625C38.385 36.727 38.427 36.824 38.5 36.895L40.465 38.875"></path></g></g></g><g id="g-root-ic_1_1cynhsq1f4nnrf-stroke" data-item-order="999998704" transform="translate(255, 472)"></g><g id="g-root-ic_1_1d3n7bu1f50a2t-fill" data-item-order="999998704" transform="translate(459, 190)"><g id="ic_1_1d3n7bu1f50a2t-fill-merged" stroke="none" fill="#ffffff" fill-opacity="1"><g><path d="M25.21 40.945C25.323 40.75 25.323 40.51 25.21 40.315C25.141 40.169 25.017 40.056 24.865 40C24.722 39.945 24.627 39.808 24.625 39.655 V35.875C24.625 35.668 24.793 35.5 25 35.5 H27.61C27.89 35.505 28.148 35.347 28.27 35.095L31.42 29.095C31.55 28.864 31.545 28.582 31.409 28.355C31.272 28.129 31.024 27.993 30.76 28 H13.975C11.99 27.95 10.281 29.394 10 31.36C9.894 32.419 10.241 33.474 10.956 34.263C11.67 35.051 12.686 35.501 13.75 35.5 H22C22.207 35.5 22.375 35.668 22.375 35.875 V39.625C22.375 39.832 22.207 40 22 40 H17.5C16.879 40 16.375 40.504 16.375 41.125C16.375 41.746 16.879 42.25 17.5 42.25 H24.1C24.391 42.252 24.656 42.081 24.775 41.815C24.895 41.5 25 41.26 25.21 40.945 M14.5 31.75C14.5 30.714 15.339 29.875 16.375 29.875C17.411 29.875 18.25 30.714 18.25 31.75C18.25 32.786 17.411 33.625 16.375 33.625C15.339 33.625 14.5 32.786 14.5 31.75 M22 33.625C20.964 33.625 20.125 32.786 20.125 31.75C20.125 30.714 20.964 29.875 22 29.875C23.036 29.875 23.875 30.714 23.875 31.75C23.875 32.786 23.036 33.625 22 33.625 M11.5 40C10.879 40 10.375 40.504 10.375 41.125C10.375 41.746 10.879 42.25 11.5 42.25 H13C13.621 42.25 14.125 41.746 14.125 41.125C14.125 40.504 13.621 40 13 40 H11.5 M13.75 17.5 H33.25C35.321 17.5 37 15.821 37 13.75C37 11.679 35.321 10 33.25 10 H13.75C11.679 10 10 11.679 10 13.75C10 15.821 11.679 17.5 13.75 17.5 M14.5 13.75C14.5 12.714 15.339 11.875 16.375 11.875C17.411 11.875 18.25 12.714 18.25 13.75C18.25 14.786 17.411 15.625 16.375 15.625C15.339 15.625 14.5 14.786 14.5 13.75 M20.125 13.75C20.125 12.714 20.964 11.875 22 11.875C23.036 11.875 23.875 12.714 23.875 13.75C23.875 14.786 23.036 15.625 22 15.625C20.964 15.625 20.125 14.786 20.125 13.75 M36.445 24.7C36.79 24.134 36.981 23.488 37 22.825C36.919 20.671 35.135 18.974 32.98 19 H13.975C11.99 18.95 10.281 20.394 10 22.36C9.894 23.419 10.241 24.474 10.956 25.263C11.67 26.051 12.686 26.501 13.75 26.5 H32.65C32.843 26.495 33.026 26.414 33.16 26.275C33.887 25.554 34.841 25.109 35.86 25.015C36.093 25.007 36.31 24.89 36.445 24.7 M14.5 22.75C14.5 21.714 15.339 20.875 16.375 20.875C17.411 20.875 18.25 21.714 18.25 22.75C18.25 23.786 17.411 24.625 16.375 24.625C15.339 24.625 14.5 23.786 14.5 22.75 M20.125 22.75C20.125 21.714 20.964 20.875 22 20.875C23.036 20.875 23.875 21.714 23.875 22.75C23.875 23.786 23.036 24.625 22 24.625C20.964 24.625 20.125 23.786 20.125 22.75 M38.17 28.405C37.792 27.695 37.054 27.252 36.25 27.252C35.446 27.252 34.708 27.695 34.33 28.405L26.74 42.865C26.393 43.533 26.421 44.334 26.814 44.975C27.207 45.617 27.907 46.006 28.66 46 H43.84C44.593 45.997 45.291 45.606 45.685 44.965C46.075 44.326 46.103 43.53 45.76 42.865L38.17 28.405 M34.75 41.905C34.75 41.077 35.422 40.405 36.25 40.405C37.078 40.405 37.75 41.077 37.75 41.905C37.75 42.733 37.078 43.405 36.25 43.405C35.847 43.405 35.461 43.243 35.179 42.955C34.896 42.667 34.742 42.278 34.75 41.875 M37.375 37.78C37.375 38.401 36.871 38.905 36.25 38.905C35.629 38.905 35.125 38.401 35.125 37.78 V33.28C35.125 32.659 35.629 32.155 36.25 32.155C36.871 32.155 37.375 32.659 37.375 33.28 V37.78"></path></g></g></g><g id="g-root-ic_1_1d3n7bu1f50a2t-stroke" data-item-order="999998704" transform="translate(459, 190)"></g><g id="g-root-ic_stea_v7dhay1f4gmpv-fill" data-item-order="999998704" transform="translate(459, 472)"><g id="ic_stea_v7dhay1f4gmpv-fill-merged" stroke="none" fill="#ffffff" fill-opacity="1"><g><path d="M17.5 37C17.5 37.828 18.172 38.5 19 38.5C19.828 38.5 20.5 37.828 20.5 37C20.5 36.172 19.828 35.5 19 35.5C18.172 35.5 17.5 36.172 17.5 37 M45.565 16.435L39.565 10.435C38.977 9.847 38.023 9.847 37.435 10.435C36.847 11.023 36.847 11.977 37.435 12.565L38.29 13.405C38.578 13.702 38.578 14.173 38.29 14.47L37.255 15.49C37.119 15.635 36.929 15.717 36.73 15.717C36.531 15.717 36.341 15.635 36.205 15.49L33.58 12.865C32.995 12.283 32.05 12.283 31.465 12.865C31.181 13.147 31.021 13.53 31.021 13.93C31.021 14.33 31.181 14.713 31.465 14.995L32.605 16.135C32.849 16.385 32.849 16.785 32.605 17.035C32.483 17.156 32.415 17.321 32.415 17.493C32.415 17.664 32.483 17.829 32.605 17.95L34.27 19.615C34.556 19.907 34.556 20.373 34.27 20.665C34.129 20.807 33.937 20.887 33.737 20.887C33.538 20.887 33.346 20.807 33.205 20.665L31.615 19.075C31.318 18.787 30.847 18.787 30.55 19.075L29.26 20.365C28.972 20.662 28.972 21.133 29.26 21.43L30.76 22.93C30.902 23.071 30.982 23.263 30.982 23.463C30.982 23.662 30.902 23.854 30.76 23.995C30.468 24.281 30.002 24.281 29.71 23.995L28.21 22.495C28.069 22.349 27.873 22.267 27.67 22.27C27.471 22.268 27.28 22.349 27.145 22.495L26.695 22.945C25.34 24.294 24.986 26.351 25.81 28.075L24.655 29.23C24.405 29.473 24.023 29.516 23.725 29.335C20.477 27.336 16.322 27.602 13.355 29.997C10.388 32.392 9.252 36.398 10.521 39.994C11.789 43.59 15.187 45.997 19 46 H28.75C32.064 46 34.75 43.314 34.75 40C34.75 36.686 32.064 34 28.75 34C28.326 33.999 27.914 33.857 27.58 33.595C27.297 33.346 26.873 33.346 26.59 33.595L24.43 35.815C24.273 35.973 24.195 36.194 24.22 36.415 V37C24.22 37.414 24.556 37.75 24.97 37.75 H28.72C29.963 37.75 30.97 38.757 30.97 40C30.97 41.243 29.963 42.25 28.72 42.25 H19C16.101 42.25 13.75 39.899 13.75 37C13.75 34.101 16.101 31.75 19 31.75C19.684 31.748 20.362 31.88 20.995 32.14C21.118 32.185 21.205 32.295 21.22 32.425C21.245 32.543 21.211 32.666 21.13 32.755L20.845 33.04C20.335 33.635 20.37 34.522 20.924 35.076C21.478 35.63 22.365 35.665 22.96 35.155L28 30.19C29.724 31.014 31.781 30.66 33.13 29.305L38.89 23.5C39.027 23.334 39.23 23.239 39.445 23.239C39.66 23.239 39.863 23.334 40 23.5L41.065 24.55C41.347 24.834 41.73 24.994 42.13 24.994C42.53 24.994 42.913 24.834 43.195 24.55C43.777 23.965 43.777 23.02 43.195 22.435L40.51 19.795C40.365 19.659 40.283 19.469 40.283 19.27C40.283 19.071 40.365 18.881 40.51 18.745L41.5 17.71C41.654 17.566 41.859 17.49 42.07 17.5C42.266 17.499 42.454 17.574 42.595 17.71L43.435 18.565C43.717 18.849 44.1 19.009 44.5 19.009C44.9 19.009 45.283 18.849 45.565 18.565C45.849 18.283 46.009 17.9 46.009 17.5C46.009 17.1 45.849 16.717 45.565 16.435"></path></g></g></g><g id="g-root-ic_stea_v7dhay1f4gmpv-stroke" data-item-order="999998704" transform="translate(459, 472)"></g><g id="g-root-ic_door_1430ee21f50bgp-fill" data-item-order="999998704" transform="translate(357, 157)"><g id="ic_door_1430ee21f50bgp-fill-merged" stroke="none" fill="#ffffff" fill-opacity="1"><g><path d="M12.49 11.215 V37.795C12.477 38.367 12.792 38.897 13.3 39.16L25.3 45.16C25.524 45.249 25.764 45.295 26.005 45.295 V17.83L12.49 11.215 M23.08 30.22C23.08 30.841 22.576 31.345 21.955 31.345C21.334 31.345 20.83 30.841 20.83 30.22 V27.115C20.83 26.494 21.334 25.99 21.955 25.99C22.576 25.99 23.08 26.494 23.08 27.115 V30.22 M31.405 13.735 V22.375C31.922 22.176 32.471 22.074 33.025 22.075 H34.405 V13.735C34.455 11.722 32.863 10.049 30.85 10 H15.13L21.265 13 H30.85C31.15 13 31.405 13.345 31.405 13.735 M42.775 25 H33.025C31.782 25 30.775 26.007 30.775 27.25 V43.75C30.775 44.993 31.782 46 33.025 46 H42.775C44.018 46 45.025 44.993 45.025 43.75 V27.25C45.025 26.007 44.018 25 42.775 25 M35.14 41.98C34.312 41.98 33.64 41.308 33.64 40.48C33.64 39.652 34.312 38.98 35.14 38.98C35.968 38.98 36.64 39.652 36.64 40.48C36.64 41.308 35.968 41.98 35.14 41.98 M35.14 37.105C34.312 37.105 33.64 36.433 33.64 35.605C33.64 34.777 34.312 34.105 35.14 34.105C35.968 34.105 36.64 34.777 36.64 35.605C36.64 36.433 35.968 37.105 35.14 37.105 M35.14 32.23C34.312 32.23 33.64 31.558 33.64 30.73C33.64 29.902 34.312 29.23 35.14 29.23C35.968 29.23 36.64 29.902 36.64 30.73C36.64 31.558 35.968 32.23 35.14 32.23 M40.39 41.98C39.562 41.98 38.89 41.308 38.89 40.48C38.89 39.652 39.562 38.98 40.39 38.98C41.218 38.98 41.89 39.652 41.89 40.48C41.89 41.308 41.218 41.98 40.39 41.98 M40.39 37.105C39.562 37.105 38.89 36.433 38.89 35.605C38.89 34.777 39.562 34.105 40.39 34.105C41.218 34.105 41.89 34.777 41.89 35.605C41.89 36.433 41.218 37.105 40.39 37.105 M40.39 32.23C39.562 32.23 38.89 31.558 38.89 30.73C38.89 29.902 39.562 29.23 40.39 29.23C41.218 29.23 41.89 29.902 41.89 30.73C41.89 31.558 41.218 32.23 40.39 32.23"></path></g></g></g><g id="g-root-ic_door_1430ee21f50bgp-stroke" data-item-order="999998704" transform="translate(357, 157)"></g><g id="g-root-ic_warn_1d1rv8a1f4p2br-fill" data-item-order="999998704" transform="translate(255, 190)"><g id="ic_warn_1d1rv8a1f4p2br-fill-merged" stroke="none" fill="#ffffff" fill-opacity="1"><g><path d="M34 35.125C34 35.332 33.832 35.5 33.625 35.5 H13.375C13.168 35.5 13 35.332 13 35.125 V22.375C13 22.168 13.168 22 13.375 22 H25.87C26.007 22 26.134 21.926 26.2 21.805L27.385 19.555C27.452 19.439 27.452 19.296 27.385 19.18C27.318 19.063 27.19 18.993 27.055 19 H13C11.343 19 10 20.343 10 22 V37.75C10 39.407 11.343 40.75 13 40.75 H21.625C21.832 40.75 22 40.918 22 41.125 V42.625C22 42.832 21.832 43 21.625 43 H17.5C16.672 43 16 43.672 16 44.5C16 45.328 16.672 46 17.5 46 H29.5C30.328 46 31 45.328 31 44.5C31 43.672 30.328 43 29.5 43 H25.375C25.168 43 25 42.832 25 42.625 V41.125C25 40.918 25.168 40.75 25.375 40.75 H34C35.657 40.75 37 39.407 37 37.75 V31.375C37 31.168 36.832 31 36.625 31 H34.375C34.168 31 34 31.168 34 31.375 V35.125 M38.17 11.155C37.792 10.445 37.054 10.002 36.25 10.002C35.446 10.002 34.708 10.445 34.33 11.155L26.74 25.6C26.395 26.27 26.423 27.071 26.815 27.714C27.208 28.358 27.907 28.75 28.66 28.75 H43.84C44.593 28.756 45.293 28.367 45.686 27.725C46.079 27.084 46.107 26.283 45.76 25.615L38.17 11.155 M36.25 15.655C36.868 15.663 37.367 16.162 37.375 16.78 V21.28C37.375 21.901 36.871 22.405 36.25 22.405C35.629 22.405 35.125 21.901 35.125 21.28 V16.78C35.117 16.15 35.62 15.633 36.25 15.625 M34.75 24.655C34.75 23.827 35.422 23.155 36.25 23.155C37.078 23.155 37.75 23.827 37.75 24.655C37.75 25.483 37.078 26.155 36.25 26.155C35.847 26.155 35.461 25.993 35.179 25.705C34.896 25.417 34.742 25.028 34.75 24.625"></path></g></g></g><g id="g-root-ic_warn_1d1rv8a1f4p2br-stroke" data-item-order="999998704" transform="translate(255, 190)"></g><g id="g-root-ic_malf_1upb17e1f4f7ri-fill" data-item-order="999998704" transform="translate(522, 277)"><g id="ic_malf_1upb17e1f4f7ri-fill-merged" stroke="none" fill="#ffffff" fill-opacity="1"><g><path d="M37.075 10.9C37.525 10.9 37.975 11.2 38.275 11.65L45.775 26.05C46.075 26.5 46.075 26.95 45.775 27.4C45.475 27.7 45.025 28 44.575 28 H29.425C28.975 28 28.525 27.85 28.225 27.4C28.075 26.95 27.925 26.5 28.225 26.05L35.875 11.65C36.025 11.2 36.475 10.9 37.075 10.9 M38.2 17.35C38.2 16.729 37.696 16.225 37.075 16.225C36.454 16.225 35.95 16.729 35.95 17.35 V19.6C35.95 20.221 36.454 20.725 37.075 20.725C37.696 20.725 38.2 20.221 38.2 19.6 V17.35 M38.762 24.1C38.762 25.032 38.007 25.787 37.075 25.787C36.143 25.787 35.387 25.032 35.387 24.1C35.387 23.168 36.143 22.412 37.075 22.412C38.007 22.412 38.762 23.168 38.762 24.1 M20.462 29.691C18.009 28.993 15.401 29.527 13.337 31.075C11.257 32.631 10.034 35.077 10.038 37.675C10.038 42.361 13.857 46 18.362 46 H33.813C35.467 46.011 37.057 45.359 38.227 44.189C39.397 43.019 40.049 41.429 40.038 39.775C40.037 36.874 38.204 34.472 35.453 33.739L20.464 29.691 M21.362 37.675C21.363 39.166 20.154 40.375 18.663 40.375C17.171 40.375 15.963 39.166 15.963 37.675C15.963 36.184 17.171 34.975 18.663 34.975C20.154 34.975 21.363 36.184 21.363 37.675 M34.307 39.569C34.307 40.605 33.468 41.444 32.432 41.444C31.397 41.444 30.557 40.605 30.557 39.569C30.557 38.534 31.397 37.694 32.432 37.694C33.468 37.694 34.307 38.534 34.307 39.569"></path></g></g></g><g id="g-root-ic_malf_1upb17e1f4f7ri-stroke" data-item-order="999998704" transform="translate(522, 277)"></g><g id="g-root-ic_warn_mahivu1f4p2wz-fill" data-item-order="999998704" transform="translate(192, 277)"><g id="ic_warn_mahivu1f4p2wz-fill-merged" stroke="none" fill="#ffffff" fill-opacity="1"><g><path d="M45.04 14.575L41.5 10.96C40.987 10.451 40.288 10.174 39.565 10.195 H22.18C20.73 10.195 19.555 11.37 19.555 12.82 V24.52C19.562 24.71 19.71 24.865 19.9 24.88C20.404 24.93 20.905 25.01 21.4 25.12C21.511 25.148 21.629 25.123 21.72 25.052C21.81 24.982 21.864 24.875 21.865 24.76 V12.76C21.865 12.553 22.033 12.385 22.24 12.385 H39.565L39.835 12.49L43.45 16.165C43.521 16.236 43.559 16.334 43.555 16.435 V37.57C43.555 37.777 43.387 37.945 43.18 37.945 H29.83C29.635 37.945 29.605 38.14 29.68 38.29L30.58 39.985C30.642 40.111 30.769 40.192 30.91 40.195 H43.18C44.63 40.195 45.805 39.02 45.805 37.57 V16.435C45.805 15.738 45.53 15.07 45.04 14.575 M21.85 28.225C21.472 27.515 20.734 27.072 19.93 27.072C19.126 27.072 18.388 27.515 18.01 28.225L10.51 42.67C10.158 43.338 10.187 44.143 10.585 44.785C10.982 45.424 11.678 45.815 12.43 45.82 H27.52C28.272 45.815 28.968 45.424 29.365 44.785C29.782 44.154 29.834 43.349 29.5 42.67L21.85 28.225 M18.85 33.82C18.85 33.199 19.354 32.695 19.975 32.695C20.596 32.695 21.1 33.199 21.1 33.82 V38.32C21.1 38.941 20.596 39.445 19.975 39.445C19.354 39.445 18.85 38.941 18.85 38.32 V33.82 M19.975 43.195C19.147 43.195 18.475 42.523 18.475 41.695C18.475 40.867 19.147 40.195 19.975 40.195C20.803 40.195 21.475 40.867 21.475 41.695C21.475 42.523 20.803 43.195 19.975 43.195 M40.555 22.57C40.555 18.635 37.365 15.445 33.43 15.445C29.495 15.445 26.305 18.635 26.305 22.57C26.305 26.505 29.495 29.695 33.43 29.695C37.365 29.695 40.555 26.505 40.555 22.57 M28.555 22.57C28.555 19.878 30.738 17.695 33.43 17.695C36.122 17.695 38.305 19.878 38.305 22.57C38.305 25.262 36.122 27.445 33.43 27.445C30.738 27.445 28.555 25.262 28.555 22.57 M36.085 23.695C36.706 23.695 37.21 23.191 37.21 22.57C37.21 21.949 36.706 21.445 36.085 21.445 H34.945C34.73 21.445 34.555 21.27 34.555 21.055 V19.915C34.555 19.294 34.051 18.79 33.43 18.79C32.809 18.79 32.305 19.294 32.305 19.915 V22.57C32.313 23.188 32.812 23.687 33.43 23.695 H36.085"></path></g></g></g><g id="g-root-ic_warn_mahivu1f4p2wz-stroke" data-item-order="999998704" transform="translate(192, 277)"></g><g id="g-root-ic_warn_4ots621f4nndb-fill" data-item-order="999998704" transform="translate(192, 385)"><g id="ic_warn_4ots621f4nndb-fill-merged" stroke="none" fill="#ffffff" fill-opacity="1"><g><path d="M40 21.25C40 20.422 39.328 19.75 38.5 19.75 H28C27.172 19.75 26.5 20.422 26.5 21.25C26.5 22.078 27.172 22.75 28 22.75 H38.5C39.328 22.75 40 22.078 40 21.25 M28.75 26.5C27.922 26.5 27.25 27.172 27.25 28C27.25 28.828 27.922 29.5 28.75 29.5 H34.75C35.578 29.5 36.25 28.828 36.25 28C36.25 27.172 35.578 26.5 34.75 26.5 H28.75 M45.115 14.5L41.5 10.885C40.94 10.322 40.179 10.003 39.385 10 H22C20.343 10 19 11.343 19 13 V24.73C18.999 24.926 19.15 25.089 19.345 25.105C20.078 25.146 20.806 25.251 21.52 25.42C21.631 25.459 21.754 25.442 21.85 25.373C21.946 25.304 22.002 25.193 22 25.075 V13.75C22 13.336 22.336 13 22.75 13 H39.07C39.269 12.998 39.46 13.079 39.595 13.225L42.775 16.405C42.921 16.54 43.002 16.731 43 16.93 V37C43 37.414 42.664 37.75 42.25 37.75 H29.74C29.608 37.753 29.487 37.822 29.417 37.934C29.348 38.046 29.339 38.186 29.395 38.305L30.58 40.555C30.646 40.676 30.773 40.75 30.91 40.75 H43C44.657 40.75 46 39.407 46 37.75 V16.615C45.997 15.821 45.678 15.06 45.115 14.5 M21.67 28.405C21.292 27.695 20.554 27.252 19.75 27.252C18.946 27.252 18.208 27.695 17.83 28.405L10.24 42.85C9.895 43.52 9.923 44.321 10.315 44.964C10.708 45.608 11.407 46 12.16 46 H27.34C28.093 46.006 28.793 45.617 29.186 44.975C29.579 44.334 29.607 43.533 29.26 42.865L21.67 28.405 M18.625 34C18.625 33.379 19.129 32.875 19.75 32.875C20.371 32.875 20.875 33.379 20.875 34 V38.5C20.875 39.121 20.371 39.625 19.75 39.625C19.129 39.625 18.625 39.121 18.625 38.5 V34 M19.75 43.375C18.922 43.375 18.25 42.703 18.25 41.875C18.25 41.047 18.922 40.375 19.75 40.375C20.578 40.375 21.25 41.047 21.25 41.875C21.25 42.703 20.578 43.375 19.75 43.375"></path></g></g></g><g id="g-root-ic_warn_4ots621f4nndb-stroke" data-item-order="999998704" transform="translate(192, 385)"></g><g id="g-root-ic_unlo_vahuqi1f4f9qi-fill" data-item-order="999998704" transform="translate(522, 385)"><g id="ic_unlo_vahuqi1f4f9qi-fill-merged" stroke="none" fill="#ffffff" fill-opacity="1"><g><path d="M43 20.5 H32.5 V16.75C32.5 14.679 34.179 13 36.25 13C38.321 13 40 14.679 40 16.75C40 17.578 40.672 18.25 41.5 18.25C42.328 18.25 43 17.578 43 16.75C43 13.022 39.978 10 36.25 10C32.522 10 29.5 13.022 29.5 16.75 V20.5C27.843 20.5 26.5 21.843 26.5 23.5 V29.815L29.65 27.865L30.55 25.765C30.969 24.819 31.754 24.083 32.725 23.725C33.706 23.359 34.795 23.424 35.725 23.905L38.725 25.405C39.617 25.841 40.294 26.62 40.6 27.565C40.913 28.509 40.843 29.537 40.405 30.43C39.761 31.716 38.438 32.52 37 32.5C36.613 32.5 36.228 32.439 35.86 32.32C35.562 32.858 35.127 33.308 34.6 33.625L30.355 36.25 H43C44.657 36.25 46 34.907 46 33.25 V23.5C46 21.843 44.657 20.5 43 20.5 M27.475 35.38L30.1 33.76L33.415 31.72C33.681 31.548 33.886 31.296 34 31L34.57 29.68L34.75 29.275L36.325 30.07C36.525 30.155 36.738 30.206 36.955 30.22C37.108 30.218 37.26 30.193 37.405 30.145 H37.495C37.624 30.092 37.745 30.021 37.855 29.935L37.975 29.845C38.104 29.725 38.211 29.582 38.29 29.425C38.388 29.25 38.444 29.055 38.455 28.855C38.52 28.232 38.191 27.634 37.63 27.355L34.63 25.855C34.443 25.766 34.238 25.72 34.03 25.72C33.856 25.72 33.683 25.751 33.52 25.81C33.128 25.952 32.813 26.251 32.65 26.635L31.735 28.75L31.465 29.38L28.345 31.315L25.945 32.815C25.499 32.475 24.989 32.23 24.445 32.095C24.066 32.013 23.677 31.983 23.29 32.005C22.594 32.031 21.917 32.238 21.325 32.605L11.95 38.365C10.012 39.566 9.415 42.111 10.616 44.05C11.817 45.988 14.362 46.586 16.3 45.385L25.6 39.625C26.189 39.256 26.67 38.739 26.995 38.125C27.473 37.295 27.643 36.323 27.475 35.38"></path></g></g></g><g id="g-root-ic_unlo_vahuqi1f4f9qi-stroke" data-item-order="999998704" transform="translate(522, 385)"></g><g id="g-root-ic_warn_1d30tei1f4gmxb-fill" data-item-order="999998704" transform="translate(357, 505)"><g id="ic_warn_1d30tei1f4gmxb-fill-merged" stroke="none" fill="#ffffff" fill-opacity="1"><g><path d="M13.375 34.45C13.168 34.45 13 34.282 13 34.075 V13.375C13 13.168 13.168 13 13.375 13 H22.375C22.582 13 22.75 13.168 22.75 13.375 V14.605C22.749 14.737 22.797 14.866 22.885 14.965L24.13 16.6C24.246 16.757 24.43 16.85 24.625 16.85C24.82 16.85 25.004 16.757 25.12 16.6L26.35 14.965C26.438 14.864 26.49 14.738 26.5 14.605 V13.375C26.499 13.179 26.65 13.016 26.845 13 H35.845C36.052 13 36.22 13.168 36.22 13.375 V24.64C36.219 24.836 36.37 24.999 36.565 25.015C37.304 25.069 38.017 25.311 38.635 25.72C38.756 25.787 38.904 25.787 39.025 25.72C39.143 25.652 39.217 25.527 39.22 25.39 V12.625C39.22 11.187 38.063 10.016 36.625 10 H12.625C11.179 10.008 10.008 11.179 10 12.625 V36.625C10.008 38.071 11.179 39.242 12.625 39.25 H25.87C26.007 39.25 26.134 39.176 26.2 39.055L28.33 34.99C28.398 34.88 28.398 34.74 28.33 34.63C28.268 34.507 28.137 34.435 28 34.45 H13.375 M20.2 16.3C19.991 16.086 19.704 15.965 19.405 15.965C19.106 15.965 18.819 16.086 18.61 16.3C18.171 16.739 18.171 17.451 18.61 17.89L20.11 19.39C20.541 19.841 21.256 19.858 21.707 19.427C22.159 18.997 22.176 18.282 21.745 17.83L20.2 16.3 M29.05 16.3L27.55 17.8C27.249 18.08 27.125 18.503 27.227 18.901C27.329 19.3 27.64 19.611 28.039 19.713C28.437 19.815 28.86 19.691 29.14 19.39L30.64 17.89C31.079 17.451 31.079 16.739 30.64 16.3C30.431 16.086 30.144 15.965 29.845 15.965C29.546 15.965 29.259 16.086 29.05 16.3 M38.17 28.405C37.792 27.695 37.054 27.252 36.25 27.252C35.446 27.252 34.708 27.695 34.33 28.405L26.74 42.85C26.395 43.52 26.423 44.321 26.815 44.964C27.208 45.608 27.907 46 28.66 46 H43.84C44.593 46.006 45.293 45.617 45.686 44.975C46.079 44.334 46.107 43.533 45.76 42.865L38.17 28.405 M36.25 32.905C36.868 32.913 37.367 33.412 37.375 34.03 V38.53C37.375 39.151 36.871 39.655 36.25 39.655C35.629 39.655 35.125 39.151 35.125 38.53 V34C35.133 33.382 35.632 32.883 36.25 32.875 M34.75 41.905C34.75 41.077 35.422 40.405 36.25 40.405C37.078 40.405 37.75 41.077 37.75 41.905C37.75 42.733 37.078 43.405 36.25 43.405C35.847 43.405 35.461 43.243 35.179 42.955C34.896 42.667 34.742 42.278 34.75 41.875 M25.27 21.25C25.13 21.03 24.886 20.896 24.625 20.896C24.364 20.896 24.12 21.03 23.98 21.25L18.73 30.25C18.596 30.482 18.596 30.768 18.73 31C18.863 31.231 19.109 31.373 19.375 31.375 H29.875C30.142 31.373 30.388 31.23 30.521 30.998C30.654 30.766 30.654 30.481 30.52 30.25L25.27 21.25"></path></g></g></g><g id="g-root-ic_warn_1d30tei1f4gmxb-stroke" data-item-order="999998704" transform="translate(357, 505)"></g><g id="g-root-tx_weaksecu_qofil61f50bv0-fill" data-item-order="1000000000" transform="translate(519, 163)"><g id="tx_weaksecu_qofil61f50bv0-fill-merged" stroke="none" fill="#484848" fill-opacity="1"><g><text style="font: 10.5px Roboto, sans-serif; white-space: pre;" transform="translate(10, 28)" font-size="10.5px" font-family="Roboto, sans-serif"><tspan x="2" y="-6" dominant-baseline="ideographic">Weak security </tspan><tspan x="2" y="6" dominant-baseline="ideographic">settings leading to </tspan><tspan x="2" y="18" dominant-baseline="ideographic">vulnerabilities</tspan></text></g></g></g><g id="g-root-tx_weaksecu_qofil61f50bv0-stroke" data-item-order="1000000000" transform="translate(519, 163)"></g><g id="g-root-tx_software_13zw0yi1f50aa1-fill" data-item-order="1000000000" transform="translate(591, 231)"><g id="tx_software_13zw0yi1f50aa1-fill-merged" stroke="none" fill="#de58a9" fill-opacity="1"><g><text style="font: bold 12px Roboto, sans-serif; white-space: pre;" transform="translate(10, 24)" font-weight="bold" font-size="12px" font-family="Roboto, sans-serif"><tspan x="2" y="0" dominant-baseline="ideographic">Software Supply </tspan><tspan x="2" y="14" dominant-baseline="ideographic">Chain Failures</tspan></text></g></g></g><g id="g-root-tx_software_13zw0yi1f50aa1-stroke" data-item-order="1000000000" transform="translate(591, 231)"></g><g id="g-root-tx_security_htezfe1f50a9t-fill" data-item-order="1000000000" transform="translate(52.890625, 255)"><g id="tx_security_htezfe1f50a9t-fill-merged" stroke="none" fill="#969696" fill-opacity="1"><g><text style="font: bold 12px Roboto, sans-serif; white-space: pre;" transform="translate(116.109375, 24)" font-weight="bold" font-size="12px" font-family="Roboto, sans-serif"><tspan x="-104.11" y="0" dominant-baseline="ideographic">Security Logging &amp; </tspan><tspan x="-91.02" y="14" dominant-baseline="ideographic">Alerting Failures</tspan></text></g></g></g><g id="g-root-tx_security_htezfe1f50a9t-stroke" data-item-order="1000000000" transform="translate(52.890625, 255)"></g><g id="g-root-tx_poorhand_4hyh221f50bus-fill" data-item-order="1000000000" transform="translate(125.9765625, 175)"><g id="tx_poorhand_4hyh221f50bus-fill-merged" stroke="none" fill="#484848" fill-opacity="1"><g><text style="font: 10.5px Roboto, sans-serif; white-space: pre;" transform="translate(115.0234375, 22)" font-size="10.5px" font-family="Roboto, sans-serif"><tspan x="-78.96" y="0" dominant-baseline="ideographic">Poor handling of </tspan><tspan x="-103.02" y="12" dominant-baseline="ideographic">errors and exceptions</tspan></text></g></g></g><g id="g-root-tx_poorhand_4hyh221f50bus-stroke" data-item-order="1000000000" transform="translate(125.9765625, 175)"></g><g id="g-root-tx_flawsint_90a1m1f4qfpc-fill" data-item-order="1000000000" transform="translate(342.7421875, 591)"><g id="tx_flawsint_90a1m1f4qfpc-fill-merged" stroke="none" fill="#484848" fill-opacity="1"><g><text style="font: 10.5px Roboto, sans-serif; white-space: pre;" transform="translate(42.2578125, 28)" font-size="10.5px" font-family="Roboto, sans-serif"><tspan x="-29.17" y="-6" dominant-baseline="ideographic">Flaws in the </tspan><tspan x="-30.26" y="6" dominant-baseline="ideographic">application&#39;s </tspan><tspan x="-29.19" y="18" dominant-baseline="ideographic">architecture</tspan></text></g></g></g><g id="g-root-tx_flawsint_90a1m1f4qfpc-stroke" data-item-order="1000000000" transform="translate(342.7421875, 591)"></g><g id="g-root-tx_inadequa_8xrz6i1f50b2i-fill" data-item-order="1000000000" transform="translate(57.5859375, 283)"><g id="tx_inadequa_8xrz6i1f50b2i-fill-merged" stroke="none" fill="#484848" fill-opacity="1"><g><text style="font: 10.5px Roboto, sans-serif; white-space: pre;" transform="translate(111.4140625, 22)" font-size="10.5px" font-family="Roboto, sans-serif"><tspan x="-91.52" y="0" dominant-baseline="ideographic">Inadequate logging </tspan><tspan x="-99.41" y="12" dominant-baseline="ideographic">and alerting systems</tspan></text></g></g></g><g id="g-root-tx_inadequa_8xrz6i1f50b2i-stroke" data-item-order="1000000000" transform="translate(57.5859375, 283)"></g><g id="g-root-tx_vulnerab_zk2iu21f50b2a-fill" data-item-order="1000000000" transform="translate(591, 259)"><g id="tx_vulnerab_zk2iu21f50b2a-fill-merged" stroke="none" fill="#484848" fill-opacity="1"><g><text style="font: 10.5px Roboto, sans-serif; white-space: pre;" transform="translate(10, 34)" font-size="10.5px" font-family="Roboto, sans-serif"><tspan x="2" y="-12" dominant-baseline="ideographic">Vulnerabilities </tspan><tspan x="2" y="0" dominant-baseline="ideographic">introduced through </tspan><tspan x="2" y="12" dominant-baseline="ideographic">third-party </tspan><tspan x="2" y="24" dominant-baseline="ideographic">components</tspan></text></g></g></g><g id="g-root-tx_vulnerab_zk2iu21f50b2a-stroke" data-item-order="1000000000" transform="translate(591, 259)"></g><g id="g-root-tx_security_zk2iu21f50b2b-fill" data-item-order="1000000000" transform="translate(519, 135)"><g id="tx_security_zk2iu21f50b2b-fill-merged" stroke="none" fill="#e0cb15" fill-opacity="1"><g><text style="font: bold 12px Roboto, sans-serif; white-space: pre;" transform="translate(10, 24)" font-weight="bold" font-size="12px" font-family="Roboto, sans-serif"><tspan x="2" y="0" dominant-baseline="ideographic">Security </tspan><tspan x="2" y="14" dominant-baseline="ideographic">Misconfiguration</tspan></text></g></g></g><g id="g-root-tx_security_zk2iu21f50b2b-stroke" data-item-order="1000000000" transform="translate(519, 135)"></g><g id="g-root-tx_software_m98hju1f509hj-fill" data-item-order="1000000000" transform="translate(51.890625, 368)"><g id="tx_software_m98hju1f509hj-fill-merged" stroke="none" fill="#ba5de5" fill-opacity="1"><g><text style="font: bold 12px Roboto, sans-serif; white-space: pre;" transform="translate(105.109375, 24)" font-weight="bold" font-size="12px" font-family="Roboto, sans-serif"><tspan x="-92.37" y="0" dominant-baseline="ideographic">Software or Data </tspan><tspan x="-93.11" y="14" dominant-baseline="ideographic">Integrity Failures</tspan></text></g></g></g><g id="g-root-tx_software_m98hju1f509hj-stroke" data-item-order="1000000000" transform="translate(51.890625, 368)"></g><g id="g-root-tx_mishandl_8xrz6i1f50b2j-fill" data-item-order="1000000000" transform="translate(146.5390625, 133)"><g id="tx_mishandl_8xrz6i1f50b2j-fill-merged" stroke="none" fill="#e55753" fill-opacity="1"><g><text style="font: bold 12px Roboto, sans-serif; white-space: pre;" transform="translate(94.4609375, 31)" font-weight="bold" font-size="12px" font-family="Roboto, sans-serif"><tspan x="-82.46" y="-7" dominant-baseline="ideographic">Mishandling of </tspan><tspan x="-64.57" y="7" dominant-baseline="ideographic">Exceptional </tspan><tspan x="-60.2" y="21" dominant-baseline="ideographic">Conditions</tspan></text></g></g></g><g id="g-root-tx_mishandl_8xrz6i1f50b2j-stroke" data-item-order="1000000000" transform="translate(146.5390625, 133)"></g><g id="g-root-tx_cryptogr_qofil61f50bv1-fill" data-item-order="1000000000" transform="translate(603, 368)"><g id="tx_cryptogr_qofil61f50bv1-fill-merged" stroke="none" fill="#1eabda" fill-opacity="1"><g><text style="font: bold 12px Roboto, sans-serif; white-space: pre;" transform="translate(10, 24)" font-weight="bold" font-size="12px" font-family="Roboto, sans-serif"><tspan x="2" y="0" dominant-baseline="ideographic">Cryptographic </tspan><tspan x="2" y="14" dominant-baseline="ideographic">Failures</tspan></text></g></g></g><g id="g-root-tx_cryptogr_qofil61f50bv1-stroke" data-item-order="1000000000" transform="translate(603, 368)"></g><g id="g-root-tx_compromi_htezfe1f50a9s-fill" data-item-order="1000000000" transform="translate(66.3359375, 396)"><g id="tx_compromi_htezfe1f50a9s-fill-merged" stroke="none" fill="#484848" fill-opacity="1"><g><text style="font: 10.5px Roboto, sans-serif; white-space: pre;" transform="translate(90.6640625, 28)" font-size="10.5px" font-family="Roboto, sans-serif"><tspan x="-68.05" y="-6" dominant-baseline="ideographic">Compromised </tspan><tspan x="-78.66" y="6" dominant-baseline="ideographic">software or data </tspan><tspan x="-39.77" y="18" dominant-baseline="ideographic">integrity</tspan></text></g></g></g><g id="g-root-tx_compromi_htezfe1f50a9s-stroke" data-item-order="1000000000" transform="translate(66.3359375, 396)"></g><g id="g-root-tx_weakencr_m98hju1f509hi-fill" data-item-order="1000000000" transform="translate(603, 396)"><g id="tx_weakencr_m98hju1f509hi-fill-merged" stroke="none" fill="#484848" fill-opacity="1"><g><text style="font: 10.5px Roboto, sans-serif; white-space: pre;" transform="translate(10, 28)" font-size="10.5px" font-family="Roboto, sans-serif"><tspan x="2" y="-6" dominant-baseline="ideographic">Weak encryption or </tspan><tspan x="2" y="6" dominant-baseline="ideographic">improper use of </tspan><tspan x="2" y="18" dominant-baseline="ideographic">cryptography</tspan></text></g></g></g><g id="g-root-tx_weakencr_m98hju1f509hi-stroke" data-item-order="1000000000" transform="translate(603, 396)"></g><g id="g-root-tx_unauthor_13zw0yi1f50aa0-fill" data-item-order="1000000000" transform="translate(322.81640625, 79)"><g id="tx_unauthor_13zw0yi1f50aa0-fill-merged" stroke="none" fill="#484848" fill-opacity="1"><g><text style="font: 10.5px Roboto, sans-serif; white-space: pre;" transform="translate(62.18359375, 28)" font-size="10.5px" font-family="Roboto, sans-serif"><tspan x="-50.18" y="-6" dominant-baseline="ideographic">Unauthorized access </tspan><tspan x="-45.7" y="6" dominant-baseline="ideographic">to sensitive data or </tspan><tspan x="-23.27" y="18" dominant-baseline="ideographic">functions</tspan></text></g></g></g><g id="g-root-tx_unauthor_13zw0yi1f50aa0-stroke" data-item-order="1000000000" transform="translate(322.81640625, 79)"></g><g id="g-root-tx_brokenac_18fpj2y1f509hr-fill" data-item-order="1000000000" transform="translate(331.24609375, 51)"><g id="tx_brokenac_18fpj2y1f509hr-fill-merged" stroke="none" fill="#de8431" fill-opacity="1"><g><text style="font: bold 12px Roboto, sans-serif; white-space: pre;" transform="translate(53.75390625, 24)" font-weight="bold" font-size="12px" font-family="Roboto, sans-serif"><tspan x="-41.75" y="0" dominant-baseline="ideographic">Broken Access </tspan><tspan x="-21.29" y="14" dominant-baseline="ideographic">Control</tspan></text></g></g></g><g id="g-root-tx_brokenac_18fpj2y1f509hr-stroke" data-item-order="1000000000" transform="translate(331.24609375, 51)"></g><g id="g-root-tx_authenti_940t7e1f4qhal-fill" data-item-order="1000000000" transform="translate(135.6328125, 481)"><g id="tx_authenti_940t7e1f4qhal-fill-merged" stroke="none" fill="#4e88e7" fill-opacity="1"><g><text style="font: bold 12px Roboto, sans-serif; white-space: pre;" transform="translate(93.3671875, 24)" font-weight="bold" font-size="12px" font-family="Roboto, sans-serif"><tspan x="-81.37" y="0" dominant-baseline="ideographic">Authentication </tspan><tspan x="-44.82" y="14" dominant-baseline="ideographic">Failures</tspan></text></g></g></g><g id="g-root-tx_authenti_940t7e1f4qhal-stroke" data-item-order="1000000000" transform="translate(135.6328125, 481)"></g><g id="g-root-tx_owasptop_1lqjkd61f50b2m-fill" data-item-order="1000000000" transform="translate(238.296875, 3)"><g id="tx_owasptop_1lqjkd61f50b2m-fill-merged" stroke="none" fill="#484848" fill-opacity="1"><g><text style="font: bold 20px Roboto, sans-serif; white-space: pre;" transform="translate(146.703125, 22)" font-weight="bold" font-size="20px" font-family="Roboto, sans-serif"><tspan x="-134.7" y="11.5" dominant-baseline="ideographic">OWASP Top 10 Vulnerabilities</tspan></text></g></g></g><g id="g-root-tx_owasptop_1lqjkd61f50b2m-stroke" data-item-order="1000000000" transform="translate(238.296875, 3)"></g><g id="g-root-tx_injectio_vahuqi1f4qi2r-fill" data-item-order="1000000000" transform="translate(531, 481)"><g id="tx_injectio_vahuqi1f4qi2r-fill-merged" stroke="none" fill="#92bd39" fill-opacity="1"><g><text style="font: bold 12px Roboto, sans-serif; white-space: pre;" transform="translate(10, 17)" font-weight="bold" font-size="12px" font-family="Roboto, sans-serif"><tspan x="2" y="7" dominant-baseline="ideographic">Injection</tspan></text></g></g></g><g id="g-root-tx_injectio_vahuqi1f4qi2r-stroke" data-item-order="1000000000" transform="translate(531, 481)"></g><g id="g-root-tx_maliciou_hzntga1f4qghw-fill" data-item-order="1000000000" transform="translate(531, 495)"><g id="tx_maliciou_hzntga1f4qghw-fill-merged" stroke="none" fill="#484848" fill-opacity="1"><g><text style="font: 10.5px Roboto, sans-serif; white-space: pre;" transform="translate(10, 28)" font-size="10.5px" font-family="Roboto, sans-serif"><tspan x="2" y="-6" dominant-baseline="ideographic">Malicious code </tspan><tspan x="2" y="6" dominant-baseline="ideographic">injected into </tspan><tspan x="2" y="18" dominant-baseline="ideographic">applications</tspan></text></g></g></g><g id="g-root-tx_maliciou_hzntga1f4qghw-stroke" data-item-order="1000000000" transform="translate(531, 495)"></g><g id="g-root-tx_weakauth_4o7b2y1f4qi2u-fill" data-item-order="1000000000" transform="translate(113.28125, 509)"><g id="tx_weakauth_4o7b2y1f4qi2u-fill-merged" stroke="none" fill="#484848" fill-opacity="1"><g><text style="font: 10.5px Roboto, sans-serif; white-space: pre;" transform="translate(115.71875, 28)" font-size="10.5px" font-family="Roboto, sans-serif"><tspan x="-97.42" y="-6" dominant-baseline="ideographic">Weak authentication </tspan><tspan x="-103.72" y="6" dominant-baseline="ideographic">mechanisms allowing </tspan><tspan x="-98.74" y="18" dominant-baseline="ideographic">unauthorized access</tspan></text></g></g></g><g id="g-root-tx_weakauth_4o7b2y1f4qi2u-stroke" data-item-order="1000000000" transform="translate(113.28125, 509)"></g><g id="g-root-tx_insecure_4o7b2y1f4qi2v-fill" data-item-order="1000000000" transform="translate(329.59375, 577)"><g id="tx_insecure_4o7b2y1f4qi2v-fill-merged" stroke="none" fill="#7f64ea" fill-opacity="1"><g><text style="font: bold 12px Roboto, sans-serif; white-space: pre;" transform="translate(55.40625, 17)" font-weight="bold" font-size="12px" font-family="Roboto, sans-serif"><tspan x="-43.41" y="7" dominant-baseline="ideographic">Insecure Design</tspan></text></g></g></g><g id="g-root-tx_insecure_4o7b2y1f4qi2v-stroke" data-item-order="1000000000" transform="translate(329.59375, 577)"></g></g></g><path id="w4njnj57lejur" d="M65.283 12.757a.35.35 0 0 0 .584.157l5.203-5.141-6.183 3.523.396 1.461zm-2.216-11.7a.35.35 0 0 0-.522.305v3.111l3.276-1.868-2.754-1.548zm3.728 2.105l-4.25 2.421v2.445l6.391-3.644-2.141-1.222zm4.708 3.303a.35.35 0 0 0 0-.609l-1.592-.9-7.365 4.199v1.782a.35.35 0 0 0 .523.305l8.435-4.777z M44.542 2.513c0-.433.355-.783.792-.783s.792.35.792.783-.355.783-.792.783-.792-.35-.792-.783zm59.171 0c0-.433.355-.783.792-.783s.792.35.792.783-.355.783-.792.783-.792-.35-.792-.783zm-85.951 7.636h-1.27v-.487c-.276.201-.864.609-1.881.609-1.202 0-2.274-.794-2.137-2.078.118-1.106 1.153-1.584 1.848-1.727l2.17-.345c0-.539-.29-.956-1.064-1.006s-1.21.305-1.571 1.017l-1.124-.605c1.218-2.631 5.029-1.764 5.029.414v4.207zm-1.27-2.86c.006.396-.062 1.112-.819 1.59-.587.37-1.841.299-1.903-.395-.049-.555.461-.791.906-.898l1.816-.297zm72.662 2.86h-1.27v-.487c-.276.201-.864.609-1.881.609-1.202 0-2.274-.794-2.137-2.078.118-1.106 1.153-1.584 1.848-1.727l2.17-.345c0-.539-.29-.956-1.064-1.006s-1.21.305-1.571 1.017l-1.124-.605c1.218-2.631 5.029-1.764 5.029.414v4.207zm-1.27-2.86c.006.396-.062 1.112-.82 1.59-.587.37-1.841.299-1.903-.395-.049-.555.461-.791.906-.898l1.816-.297zM99.096 10.149H97.85v-8.45h1.246v4.895l2.68-2.559h1.738l-2.633 2.535 2.715 3.578h-1.556l-2.077-2.707-.867.844v1.863zm6.053-6.114h-1.255v6.113h1.255V4.035zm-59.2 0h-1.255v6.113h1.255V4.035zm5.584 6.113V1.697h1.255v2.695c.361-.346 1-.485 1.47-.485 1.452 0 2.477 1.082 2.457 2.448v3.792h-1.27v-3.68c0-.408-.214-1.339-1.315-1.339-.968 0-1.342.756-1.342 1.339v3.681h-1.255zm-4.76-4.894V4.039h.621a.45.45 0 0 0 .45-.45v-.855h1.251v1.305h1.309v1.215h-1.309v3.109c0 .293.105.664.648.664.365 0 .531-.035.736-.07v1.137s-.361.113-.857.113c-1.398 0-1.777-1.051-1.777-1.788V5.254h-1.071zM36.528 4.039h-1.394l2.191 6.106h1.125l1.234-3.918 1.238 3.918h1.129l2.188-6.106h-1.383l-1.359 3.93-1.256-3.93h-1.124l-1.242 3.957-1.348-3.957zM26.212 7.141c-.02 1.566 1.187 3.129 3.223 3.129 1.566 0 2.383-.918 2.734-1.719L31.172 8c-.315.399-.801 1.094-1.738 1.094-1.145 0-1.825-.781-1.891-1.52h4.625c.074-.284.148-.995-.03-1.559-.336-1.064-1.221-2.102-2.839-2.102s-3.088 1.152-3.088 3.227zm1.363-.75h3.348c-.055-.43-.566-1.301-1.623-1.301a1.79 1.79 0 0 0-1.725 1.301zm-8.758.75c.038 1.758 1.277 3.133 3.145 3.133 1.074 0 1.723-.477 1.961-.672v.547h1.242V1.703h-1.258v2.888c-.414-.36-1.062-.68-1.93-.68-1.91 0-3.198 1.473-3.16 3.23zm1.309-.08c0 1.119.723 1.978 1.836 1.978a1.88 1.88 0 0 0 1.94-1.904c0-1.371-1.011-1.99-1.972-1.99s-1.805.798-1.805 1.916zm76.683-.028C96.771 5.275 95.532 3.9 93.664 3.9c-1.074 0-1.723.477-1.961.672v-.547h-1.242v8.22h1.258V9.583c.414.36 1.063.68 1.93.68 1.91 0 3.198-1.473 3.16-3.23zm-1.309.08c0-1.119-.723-1.978-1.836-1.978a1.88 1.88 0 0 0-1.94 1.904c0 1.371 1.011 1.99 1.972 1.99S95.5 8.231 95.5 7.113zM106.441 10.173V4.036h1.254v.382c.361-.346 1-.485 1.47-.485 1.452 0 2.477 1.082 2.457 2.448v3.792h-1.27V6.492c0-.408-.214-1.339-1.315-1.339-.969 0-1.342.756-1.342 1.339v3.681h-1.254zm-30.383-.021V1.824h1.084l4.215 5.777V1.824h1.32v8.328h-1.094l-4.207-5.796v5.796h-1.319zM5.24 10.149H4V2.377h1.014l2.664 3.597 2.654-3.592h1.03v7.766h-1.256V4.762L7.678 8.068 5.24 4.742v5.407z" transform="translate(634, 626)" fill="#80808088" stroke="none"></path></svg>